<svg width="25" height="25" viewBox="0 0 25 25" fill="none" xmlns="http://www.w3.org/2000/svg">
<path d="M18.2773 8.43055C18.2773 6.86364 17.6549 5.3609 16.5469 4.25292C15.4389 3.14495 13.9362 2.52249 12.3692 2.52249C10.8023 2.52249 9.29955 3.14495 8.19157 4.25292C7.08359 5.3609 6.46113 6.86364 6.46113 8.43055C6.46113 15.3233 3.50708 17.2927 3.50708 17.2927H21.2314C21.2314 17.2927 18.2773 15.3233 18.2773 8.43055Z" stroke="black" stroke-width="1.44687" stroke-linecap="round" stroke-linejoin="round"/>
<path d="M14.0728 21.2314C13.8997 21.5299 13.6512 21.7776 13.3522 21.9498C13.0532 22.122 12.7143 22.2126 12.3693 22.2126C12.0243 22.2126 11.6853 22.122 11.3863 21.9498C11.0874 21.7776 10.8389 21.5299 10.6658 21.2314" stroke="black" stroke-width="1.44687" stroke-linecap="round" stroke-linejoin="round"/>
</svg>
